<?xml version="1.0" standalone="no"?>
<!DOCTYPE svg PUBLIC "-//W3C//DTD SVG 20010904//EN"
 "http://www.w3.org/TR/2001/REC-SVG-20010904/DTD/svg10.dtd">
<svg version="1.0" xmlns="http://www.w3.org/2000/svg"
 width="400.000000pt" height="400.000000pt" viewBox="0 0 400.000000 400.000000"
 preserveAspectRatio="xMidYMid meet">
<metadata>
Created by potrace 1.14, written by Peter Selinger 2001-2017
</metadata>
<g transform="translate(0.000000,400.000000) scale(0.100000,-0.100000)"
fill="#000000" stroke="none">
<path d="M0 2069 l0 -1932 21 19 c17 15 23 16 41 5 19 -12 20 -11 16 19 -4 28
-3 31 18 26 13 -4 26 -2 29 4 8 13 35 13 35 1 0 -5 -16 -15 -36 -21 -42 -14
-41 -23 3 -11 16 5 36 5 44 1 22 -12 117 -20 96 -8 -24 13 -22 37 3 31 13 -3
20 0 20 8 0 17 75 25 85 9 10 -16 28 -12 21 5 -3 8 0 15 6 15 7 0 6 5 -2 15
-20 24 -5 28 16 4 14 -16 15 -23 6 -26 -6 -3 -12 -12 -12 -20 0 -13 -9 -15
-47 -9 -29 3 -43 2 -34 -3 17 -11 5 -32 -14 -24 -8 3 -15 0 -15 -7 0 -6 5 -8
10 -5 6 3 10 1 10 -4 0 -6 -13 -11 -29 -11 -16 0 -31 -6 -35 -15 -3 -8 -1 -15
4 -15 6 0 10 5 10 10 0 6 11 10 25 10 14 0 38 11 52 25 19 16 34 23 49 19 16
-4 24 0 29 15 3 12 13 21 21 21 8 0 14 7 14 15 0 17 16 20 25 5 3 -5 2 -10 -4
-10 -6 0 -15 -9 -21 -21 -11 -19 -10 -20 10 -9 20 11 21 10 15 -9 -3 -12 -3
-21 2 -20 24 4 25 -4 3 -21 -19 -15 -21 -20 -8 -20 9 0 18 6 21 13 3 9 8 9 21
-2 14 -12 19 -12 26 -1 4 7 25 14 47 16 54 4 63 6 63 15 0 4 -4 11 -10 14 -5
3 -10 11 -10 17 0 6 10 2 23 -10 29 -27 59 -30 50 -4 -6 14 -4 15 9 5 8 -7 18
-10 21 -6 12 12 7 21 -15 28 -21 6 -21 8 -4 12 21 6 36 -12 36 -44 0 -14 6
-23 15 -23 8 0 15 -9 15 -19 0 -11 5 -23 10 -26 6 -3 10 0 10 8 0 17 34 34 77
40 31 3 32 3 16 -15 -17 -19 -8 -24 16 -9 9 6 19 4 28 -5 12 -11 11 -18 -3
-45 -15 -30 -15 -31 1 -25 9 3 21 6 26 6 4 0 5 8 2 18 -6 14 -4 15 9 4 11 -9
18 -9 23 -3 9 16 -13 51 -29 45 -9 -3 -20 7 -29 25 -16 32 -9 42 12 18 6 -8 7
-17 3 -22 -4 -4 3 -2 16 4 27 14 57 7 46 -10 -4 -7 -3 -9 4 -5 6 3 13 -2 17
-13 7 -22 28 -33 50 -25 24 10 17 25 -8 19 -18 -5 -28 0 -40 19 -17 26 -23 61
-9 53 13 -8 53 12 51 25 -4 23 13 48 31 48 10 0 20 3 23 8 2 4 2 1 1 -5 -2 -7
-1 -20 2 -28 5 -12 10 -13 20 -4 7 6 21 9 31 6 14 -4 13 -5 -4 -6 -16 -1 -21
-5 -16 -17 5 -13 2 -15 -17 -9 -17 5 -21 4 -15 -6 6 -9 3 -11 -9 -6 -9 4 -33
0 -53 -8 -34 -14 -35 -16 -18 -29 19 -14 49 -11 40 4 -3 4 2 14 11 21 14 11
15 9 11 -22 -2 -19 -2 -26 0 -16 2 9 9 17 14 17 5 0 9 7 9 15 0 18 12 19 28 3
9 -9 12 -9 12 0 0 6 12 11 28 10 15 -1 34 0 42 3 8 2 14 -1 13 -8 -4 -18 37
-7 53 14 8 11 13 13 14 6 0 -7 7 -13 15 -13 8 0 12 -6 9 -14 -6 -14 22 -30 37
-20 5 3 9 0 9 -5 0 -6 -11 -11 -23 -11 -34 0 -38 -9 -16 -31 23 -23 29 -24 29
-4 0 8 9 15 20 15 11 0 20 5 20 10 0 6 -3 10 -7 10 -5 0 -9 10 -9 23 -1 16 4
23 17 23 11 0 17 -5 15 -13 -5 -13 28 -28 43 -18 5 3 13 1 16 -5 5 -8 11 -7
21 1 8 6 23 9 33 6 13 -3 21 1 23 12 3 13 6 12 16 -6 11 -19 9 -24 -9 -34 -13
-6 -24 -7 -28 -2 -8 13 -82 12 -78 -1 2 -6 21 -10 41 -8 23 2 35 -1 32 -7 -4
-5 3 -8 16 -6 62 9 86 29 53 41 -21 9 -19 37 5 52 12 7 20 8 20 2 0 -5 -4 -10
-10 -10 -20 0 -10 -38 13 -44 16 -4 18 -8 9 -14 -9 -6 -6 -14 13 -32 22 -20
26 -48 5 -35 -4 3 -6 -4 -3 -15 7 -25 9 -25 35 0 l22 20 -22 20 c-12 11 -26
20 -32 20 -5 0 -10 5 -10 10 0 13 13 13 27 -1 6 -6 17 -9 25 -6 8 3 1 10 -19
19 -24 10 -30 17 -23 28 7 12 12 12 28 -3 23 -21 33 -22 26 -2 -4 8 -12 15
-20 15 -8 0 -14 5 -14 10 0 15 16 12 30 -4 6 -8 18 -12 26 -9 20 7 49 -17 32
-28 -9 -6 -8 -12 6 -28 10 -11 15 -25 10 -32 -5 -9 -10 -7 -20 5 -16 22 -23
18 -59 -34 -22 -32 -26 -43 -16 -53 10 -9 11 -8 6 6 -4 9 -3 17 3 17 6 0 12
-5 14 -11 4 -12 58 -1 58 12 0 5 7 9 16 9 12 0 11 -5 -7 -20 -24 -19 -24 -19
-2 -20 12 0 24 6 26 13 4 8 8 9 14 1 4 -5 28 -11 53 -11 39 -2 43 0 28 11 -29
21 -21 30 9 11 18 -12 28 -14 31 -7 2 7 10 12 18 12 8 0 14 7 14 16 0 13 -3
14 -14 5 -10 -8 -16 -9 -21 -1 -3 5 6 15 20 20 15 6 23 15 19 21 -4 8 1 9 17
4 47 -15 52 -22 20 -28 -21 -5 -31 -12 -31 -25 0 -10 -5 -23 -10 -28 -7 -7 2
-10 26 -11 33 -1 34 0 20 16 -26 28 -20 44 14 39 22 -3 30 -1 30 11 0 11 3 10
14 -5 13 -16 13 -20 0 -27 -23 -13 -16 -34 11 -34 16 0 25 5 25 16 1 14 2 14
13 -1 15 -19 97 -23 110 -4 6 8 10 8 14 -1 7 -19 53 -16 53 2 0 16 9 19 36 8
16 -6 16 -7 -2 -14 -10 -5 50 -7 135 -7 139 2 154 4 159 20 5 22 11 22 42 -1
24 -19 25 -19 52 1 30 21 37 19 14 -5 -12 -12 -6 -14 47 -14 45 -1 56 2 40 8
-13 5 -23 14 -23 20 0 8 4 8 15 -1 12 -10 15 -10 15 4 0 9 5 16 11 16 6 0 9
-7 6 -14 -4 -11 -1 -13 10 -9 12 5 15 2 10 -10 -6 -15 0 -17 46 -16 28 1 55 7
59 13 5 8 8 7 8 -2 0 -9 58 -12 260 -11 152 1 260 5 260 10 0 6 8 5 19 -1 25
-13 54 -13 46 0 -3 6 -2 10 4 10 5 0 13 -4 16 -10 9 -14 48 -12 64 3 11 9 14
9 18 0 3 -7 13 -13 24 -13 12 0 16 5 13 14 -4 10 1 14 15 13 23 -1 28 -13 8
-20 -6 -3 12 -6 41 -6 39 -1 60 5 82 21 16 12 33 19 37 15 3 -4 1 -7 -5 -7 -7
0 -12 -6 -12 -14 0 -11 13 -15 50 -14 l50 0 0 35 c0 25 -4 34 -13 30 -8 -3
-14 1 -14 9 0 8 6 13 12 10 10 -3 12 54 12 245 -1 230 -6 281 -22 229 -4 -11
-11 -17 -17 -14 -7 5 -1 16 15 30 32 28 34 38 6 29 -17 -6 -20 -3 -17 12 2 10
11 17 20 17 13 -1 15 7 12 40 -2 22 -4 47 -5 53 -1 7 -24 16 -50 19 -27 4 -47
11 -46 17 1 7 -9 13 -21 15 -21 3 -23 1 -17 -19 7 -20 5 -21 -24 -16 -22 5
-33 2 -39 -10 -8 -13 -15 -10 -46 21 -41 39 -56 45 -56 21 0 -8 -2 -15 -5 -15
-10 0 -43 39 -37 44 10 11 -23 5 -47 -8 -27 -15 -13 -31 19 -21 14 4 20 2 20
-9 0 -8 9 -21 19 -28 13 -10 17 -19 11 -28 -7 -11 -11 -11 -24 -1 -8 7 -12 19
-9 27 3 9 -2 14 -15 14 -11 0 -23 -6 -25 -12 -3 -8 -6 -6 -6 5 -1 17 -21 23
-35 10 -9 -9 -46 -11 -40 -2 2 4 0 9 -4 11 -5 1 -12 15 -16 31 -5 22 -3 27 11
27 17 1 17 2 -1 15 -17 13 -21 12 -42 -11 -20 -20 -27 -23 -44 -14 -11 6 -25
8 -30 5 -6 -3 -19 -8 -30 -10 -26 -5 -53 -32 -45 -45 3 -5 1 -10 -4 -10 -6 0
-11 9 -11 19 0 14 -9 20 -32 23 -18 3 -41 8 -51 13 -14 6 -20 2 -24 -14 -7
-26 -23 -18 -23 12 -1 22 -1 22 -16 2 -8 -11 -17 -19 -20 -17 -2 2 -18 1 -35
-3 -24 -5 -34 -2 -49 15 -20 23 -42 28 -76 16 -15 -4 -23 -2 -28 9 -3 8 -12
15 -20 15 -8 0 -16 5 -18 11 -4 12 -38 1 -38 -13 0 -6 9 -8 20 -5 27 7 35 -9
15 -29 -9 -9 -14 -23 -10 -31 4 -11 1 -13 -11 -9 -8 3 -21 6 -28 6 -7 0 -17
14 -22 32 -12 41 -39 53 -32 14 4 -18 1 -29 -8 -32 -8 -2 -21 -6 -29 -9 -19
-6 -9 -32 16 -38 12 -3 19 0 19 9 0 8 5 14 11 14 13 0 1 -42 -15 -52 -18 -12
-36 -9 -42 7 -4 8 -12 15 -20 15 -15 0 -19 12 -7 24 4 3 7 15 8 26 2 22 -54
48 -65 30 -4 -6 -14 -8 -22 -5 -9 4 -18 0 -21 -9 -4 -9 -14 -12 -26 -9 -12 3
-21 1 -21 -6 0 -6 -5 -11 -11 -11 -6 0 -9 6 -6 14 5 11 -5 14 -46 12 -29 -1
-57 -5 -64 -9 -19 -12 -58 16 -55 40 3 22 39 37 65 27 11 -4 16 2 19 23 3 31
3 30 94 18 40 -6 57 -4 74 8 21 14 21 16 3 26 -14 8 -15 10 -2 11 8 0 34 9 57
20 22 11 48 20 56 20 8 0 18 5 22 11 5 9 59 37 84 44 33 10 60 27 60 39 0 8 9
18 20 21 15 5 19 12 15 26 -4 11 -2 19 4 19 6 0 11 9 11 19 0 11 5 23 10 26 6
4 8 11 5 16 -4 5 5 9 19 9 14 0 26 -5 26 -11 0 -5 5 -7 10 -4 6 3 10 15 10 25
0 25 15 33 40 20 11 -6 20 -7 20 -3 0 4 25 6 55 5 46 -3 55 -7 55 -23 0 -10 2
-19 5 -19 11 0 45 41 45 55 0 18 5 18 31 5 15 -8 18 -17 12 -38 -6 -24 -5 -26
10 -13 10 7 17 22 17 32 0 10 5 21 10 24 6 4 8 11 5 16 -3 5 1 6 9 3 8 -3 18
-15 21 -26 6 -15 12 -18 36 -13 16 4 43 4 60 0 24 -5 30 -11 26 -26 -7 -25 17
-25 53 1 23 16 38 19 72 14 24 -3 50 -8 58 -11 24 -10 114 -11 129 -3 8 4 26
3 39 -3 20 -9 27 -8 41 8 20 25 78 29 84 6 3 -9 5 611 6 1377 l1 1392 -2000 0
-2000 0 0 -1931z m1426 1259 c72 -64 113 -106 152 -152 25 -30 49 -27 32 4
-17 32 -11 32 23 1 17 -17 46 -38 64 -46 38 -18 37 -50 -1 -35 -19 7 -30 3
-55 -21 -18 -16 -37 -29 -42 -29 -5 0 -12 -6 -15 -14 -4 -11 -13 -12 -35 -6
-16 5 -29 6 -29 2 -1 -4 -8 9 -16 28 -15 33 -16 34 -30 16 -18 -26 -18 -13 1
24 15 29 31 31 63 7 22 -17 13 3 -13 29 -14 14 -25 29 -25 34 0 6 -15 23 -32
40 -39 35 -39 35 -78 81 -16 20 -30 45 -31 55 0 18 -1 17 -8 -1 -7 -17 -9 -15
-13 13 -7 47 10 41 88 -30z m1393 14 c6 -11 8 -46 5 -78 -7 -89 -4 -188 7
-199 15 -15 11 -50 -20 -158 -16 -56 -35 -131 -41 -167 -6 -36 -18 -86 -27
-112 -16 -45 -16 -50 0 -83 22 -47 21 -57 -2 -22 -10 16 -22 28 -27 27 -5 0
-11 7 -12 17 -2 10 -18 31 -35 47 -17 16 -43 48 -58 71 -25 40 -103 125 -114
125 -3 0 -4 -3 -4 -7 5 -28 -4 -55 -23 -73 -26 -24 -38 -26 -38 -5 0 9 -20 24
-45 35 -25 11 -45 23 -45 27 0 5 -9 14 -21 21 -16 10 -24 10 -35 1 -10 -8 -14
-9 -14 0 0 12 -37 11 -57 -2 -9 -6 -13 -1 -13 14 0 22 0 22 -15 3 -14 -19 -14
-18 -15 4 0 12 -5 22 -12 22 -6 0 -4 7 5 18 10 10 17 30 17 45 0 18 4 25 14
21 7 -3 16 2 19 10 4 9 16 16 28 16 21 0 22 -1 4 -20 -30 -33 -11 -40 147 -53
14 -1 24 -5 21 -9 -2 -5 3 -8 12 -8 8 0 18 -7 21 -15 4 -8 13 -15 21 -15 11 0
13 7 9 26 -4 15 -3 23 3 20 5 -3 11 1 15 9 3 8 1 15 -4 15 -6 0 -10 9 -10 20
0 11 -7 20 -15 20 -9 0 -18 12 -21 30 -4 19 -13 30 -23 30 -20 0 -41 19 -41
36 0 7 23 29 52 50 28 21 68 54 87 72 83 78 247 191 278 192 7 0 17 -8 22 -18z
m-1529 -71 c0 -11 4 -21 9 -23 5 -1 11 -23 12 -48 4 -42 3 -45 -23 -47 -19 -1
-28 3 -28 13 0 8 4 13 9 10 11 -7 1 37 -11 45 -9 6 12 69 24 69 4 0 8 -9 8
-19z m275 -31 c16 -16 27 -31 24 -33 -2 -2 -18 12 -36 30 -18 18 -29 33 -25
33 5 0 21 -13 37 -30z m2181 21 c-8 -12 17 -61 31 -61 6 0 14 6 16 13 4 9 8 9
15 -2 6 -8 16 -11 24 -8 23 8 9 -50 -16 -66 -25 -16 -116 -22 -116 -7 0 5 -7
10 -15 10 -9 0 -15 9 -14 23 1 16 2 18 6 5 5 -20 12 -22 32 -9 7 5 10 14 7 20
-4 6 -2 11 5 11 10 0 10 3 1 12 -15 15 -16 42 0 32 7 -4 8 -3 4 4 -8 14 1 32
15 32 6 0 8 -4 5 -9z m-1792 -120 c19 -7 19 -8 -2 -13 -19 -5 -22 -11 -16 -32
8 -32 -31 -90 -42 -62 -3 9 -1 23 6 31 10 12 8 18 -11 35 -28 23 -35 24 -45 9
-4 -8 -9 -7 -16 2 -5 9 -6 4 -2 -14 6 -27 5 -27 -31 -23 -44 6 -42 4 -47 35
-3 22 0 24 66 27 38 2 71 6 74 9 7 7 43 5 66 -4z m236 -13 c47 -5 109 -10 138
-11 l52 -1 -32 -18 c-18 -9 -49 -17 -68 -18 -19 0 -61 -13 -92 -29 -31 -16
-59 -26 -62 -23 -3 3 -6 24 -7 46 -1 34 -2 37 -8 16 -7 -23 -8 -24 -18 -6 -13
23 -22 11 -31 -46 -5 -28 -13 -43 -22 -43 -12 0 -14 14 -12 70 4 75 13 89 52
80 14 -4 63 -11 110 -17z m-35 -168 c-4 -6 -2 -17 5 -25 19 -22 -25 -85 -49
-70 -15 9 27 105 46 105 2 0 1 -5 -2 -10z m-248 -32 c-3 -8 -6 -5 -6 6 -1 11
2 17 5 13 3 -3 4 -12 1 -19z m143 -25 c-1 -24 -2 -26 -11 -10 -5 9 -7 22 -4
27 10 17 15 11 15 -17z m42 -88 c-3 -5 -8 -19 -9 -30 -2 -11 -9 -24 -15 -30
-8 -7 -9 -5 -5 7 3 9 9 33 13 53 4 25 9 33 15 24 4 -7 5 -18 1 -24z m61 -22
c-7 -3 -13 -14 -13 -24 0 -11 -4 -17 -10 -14 -5 3 -10 10 -10 15 0 14 32 42
39 34 3 -4 0 -9 -6 -11z m-273 -29 c0 -8 -4 -12 -10 -9 -5 3 -10 13 -10 21 0
8 5 12 10 9 6 -3 10 -13 10 -21z m350 1 c-13 -14 -26 -23 -28 -20 -4 4 38 44
47 45 3 0 -6 -11 -19 -25z m281 -32 c-12 -20 -14 -14 -5 12 4 9 9 14 11 11 3
-2 0 -13 -6 -23z m-414 -55 c-3 -8 -6 -5 -6 6 -1 11 2 17 5 13 3 -3 4 -12 1
-19z m73 -33 c0 -3 -10 -19 -22 -35 -26 -35 -20 -45 15 -29 20 9 35 8 73 -5
26 -9 59 -16 73 -16 26 0 112 40 142 66 19 17 43 19 33 3 -22 -37 2 -99 39
-99 9 0 20 -6 23 -13 5 -15 64 -11 64 4 0 12 37 12 44 0 8 -12 -4 -41 -16 -41
-5 0 -6 5 -3 10 4 7 -3 8 -22 4 -40 -10 -41 -10 -48 -52 -3 -20 -15 -47 -25
-59 -21 -26 -35 -30 -26 -8 3 9 0 15 -7 15 -7 0 -24 14 -36 31 -54 73 -254
124 -331 84 -19 -10 -41 -26 -48 -36 -14 -21 -21 -23 -40 -11 -9 6 -7 18 9 53
33 68 109 162 109 134z m-347 -53 c43 -73 40 -91 -10 -64 -19 10 -87 23 -130
25 -27 1 -11 16 22 23 19 3 32 10 29 15 -3 5 4 9 15 9 11 0 23 -4 26 -10 11
-18 26 -10 20 10 -9 30 8 24 28 -8z m-292 -2 c29 0 23 -16 -11 -30 -41 -17
-65 -7 -50 21 7 12 17 18 27 15 8 -3 23 -6 34 -6z m1199 -121 c0 -6 6 -9 14
-6 8 3 20 -1 26 -9 7 -8 19 -14 27 -14 7 0 13 -6 12 -12 -2 -7 2 -30 8 -50 33
-112 -58 -186 -101 -82 -12 30 -24 44 -37 44 -10 0 -19 4 -19 9 0 5 -8 12 -17
14 -13 3 -11 5 6 6 18 1 22 5 15 19 -8 20 -9 55 0 77 6 17 66 21 66 4z m-335
-71 c20 -22 32 -98 16 -98 -3 0 -12 -12 -18 -28 -7 -15 -32 -38 -55 -50 -43
-23 -128 -36 -128 -19 0 5 -12 6 -26 3 -21 -6 -25 -4 -21 8 4 9 1 13 -6 10 -7
-2 -25 7 -41 21 -28 24 -28 25 -13 57 8 18 17 40 20 48 4 10 6 8 6 -6 2 -39
30 -92 61 -114 l30 -22 34 21 c47 30 70 87 62 155 l-6 55 32 -10 c18 -5 42
-19 53 -31z m-615 -33 c0 -8 -2 -15 -4 -15 -2 0 -6 7 -10 15 -3 8 -1 15 4 15
6 0 10 -7 10 -15z m786 -12 c-4 -16 -15 -34 -24 -41 -14 -10 -14 -14 -4 -21 9
-6 -1 -12 -32 -20 -24 -6 -51 -20 -58 -30 -8 -10 -31 -29 -53 -42 l-40 -23 38
39 c21 22 45 57 54 78 11 28 21 37 39 37 12 0 36 11 51 25 35 31 37 31 29 -2z
m-1071 -78 l25 -40 -30 35 c-16 19 -30 39 -30 44 0 12 4 8 35 -39z m1058 -22
c-18 -7 -16 -20 3 -27 8 -3 12 -2 9 4 -9 15 31 12 43 -2 13 -16 -18 -58 -43
-58 -9 0 -15 -6 -12 -12 5 -15 -45 -48 -73 -48 -23 0 -35 16 -19 26 6 4 9 19
5 36 -3 18 -2 27 4 23 6 -3 10 -1 10 4 0 20 44 61 64 60 12 0 15 -3 9 -6z
m225 -88 c2 -18 -2 -31 -12 -37 -9 -5 -16 -15 -16 -22 0 -27 -52 -66 -87 -66
-25 0 -32 3 -26 13 4 6 8 14 9 17 0 3 4 13 9 23 4 10 5 21 1 24 -8 9 24 43 40
43 7 0 17 6 21 14 9 15 33 26 48 22 6 -1 11 -15 13 -31z m-1013 15 c-3 -5 -25
-9 -48 -9 l-42 2 40 7 c22 4 44 8 48 9 5 0 5 -3 2 -9z m470 -21 c55 -7 53 -8
-24 -4 -47 2 -88 8 -95 15 -8 9 -3 10 24 5 19 -5 62 -12 95 -16z m115 17 c0
-2 -7 -7 -16 -10 -8 -3 -12 -2 -9 4 6 10 25 14 25 6z m-469 -92 c31 -32 53
-62 51 -72 -9 -46 -82 -56 -141 -20 -20 13 -40 23 -46 23 -15 0 -54 65 -48 81
7 19 60 42 99 43 25 1 42 -10 85 -55z m355 38 c12 -7 19 -22 19 -44 0 -33 1
-33 90 -63 98 -32 222 -104 270 -156 23 -25 12 -19 -50 25 -91 64 -132 85
-227 116 -68 22 -115 23 -111 3 2 -9 -99 -53 -124 -53 -21 0 -100 40 -117 59
-18 20 -18 21 10 54 56 65 80 76 155 73 37 -2 75 -9 85 -14z m405 -105 c-6 -8
-8 -17 -4 -21 4 -4 0 -4 -10 0 -27 10 -19 34 11 34 11 0 12 -3 3 -13z m-263
-74 c88 -34 103 -43 171 -111 40 -40 70 -76 67 -79 -4 -4 -21 7 -39 23 -17 16
-43 38 -56 49 l-24 20 14 -25 c7 -14 13 -34 14 -45 1 -30 16 -68 34 -89 9 -11
11 -17 5 -13 -7 4 -11 -29 -12 -106 -2 -130 -6 -179 -16 -195 -4 -7 -2 -12 5
-12 7 0 5 -6 -6 -14 -12 -8 -16 -20 -12 -35 3 -13 1 -21 -8 -21 -29 0 -3 -38
31 -45 36 -6 41 -14 22 -33 -8 -8 -2 -10 25 -5 30 4 37 3 37 -11 0 -9 -4 -16
-10 -16 -5 0 -10 4 -10 8 0 5 -16 8 -35 8 -43 -2 -118 -62 -94 -77 11 -7 11
-9 1 -9 -9 0 -11 -7 -7 -20 5 -15 2 -20 -10 -20 -35 0 -75 -33 -75 -62 0 -17
-5 -27 -12 -25 -9 1 -13 -13 -13 -44 -1 -49 -21 -81 -55 -86 -18 -3 -36 36
-22 47 17 11 62 103 62 125 0 12 7 39 15 58 8 21 11 38 6 42 -5 3 -12 1 -16
-5 -9 -15 -22 -12 -29 6 -8 20 11 45 29 38 7 -3 16 3 20 15 3 12 10 19 15 16
12 -8 22 27 10 39 -13 13 -13 49 0 41 6 -3 7 1 4 10 -4 8 -1 22 6 30 7 8 10
24 7 35 -4 15 -1 20 10 18 29 -6 38 26 23 87 -12 49 -12 58 1 66 10 6 10 9 2
9 -15 0 -17 46 -3 55 16 10 12 23 -17 50 -24 22 -25 25 -9 25 18 0 17 3 -8 29
-20 20 -24 30 -14 33 10 4 11 8 1 20 -7 8 -10 18 -6 22 4 3 -10 5 -30 4 -29
-2 -37 -7 -37 -23 -1 -18 -1 -19 -11 -2 -14 24 -33 22 -19 -2 18 -35 11 -43
-15 -15 -29 31 -31 40 -11 51 7 4 19 26 26 48 7 22 20 45 29 51 13 10 13 14 1
30 -14 16 -13 16 7 6 27 -15 33 -15 33 -2 0 6 -22 21 -50 33 -27 12 -50 25
-50 30 0 11 2 10 108 -30z m-939 3 c-2 -2 -24 -14 -49 -26 -49 -24 -44 -11 5
14 27 14 55 22 44 12z m811 -255 c0 -15 9 -38 20 -51 11 -13 20 -28 20 -33 0
-12 -29 19 -46 48 -6 10 -17 21 -25 23 -9 2 -10 1 -3 -5 7 -4 22 -27 34 -51
17 -33 20 -45 10 -57 -9 -10 -9 -19 0 -36 9 -17 9 -23 -1 -29 -7 -5 -17 -6
-23 -4 -14 6 -37 -66 -29 -94 3 -12 1 -22 -5 -22 -20 0 -35 -60 -28 -115 5
-45 3 -58 -11 -73 -23 -24 -53 -80 -53 -98 0 -8 -6 -14 -13 -14 -8 0 -19 -12
-26 -26 -11 -26 -12 -26 -26 -8 -14 18 -14 18 -15 -8 0 -15 -4 -29 -8 -32 -14
-8 -35 11 -39 35 -2 13 -8 26 -13 29 -12 7 -11 120 1 120 5 0 9 -15 9 -32 0
-36 15 -67 26 -55 4 3 2 12 -4 20 -6 7 -9 32 -7 55 2 23 -1 44 -6 48 -6 3 -8
17 -5 30 4 14 2 24 -4 24 -5 0 -10 -9 -10 -20 0 -11 -6 -23 -14 -26 -8 -3 -13
-20 -12 -44 1 -37 -8 -59 -20 -48 -3 3 -7 48 -10 99 -3 58 -11 108 -21 129
-17 35 -17 35 -24 10 -4 -15 -7 -18 -8 -8 -1 9 -15 26 -31 38 -48 34 -53 52
-34 117 9 32 22 64 30 72 11 12 15 11 23 -12 6 -15 8 -34 5 -42 -4 -8 -1 -15
5 -15 6 0 11 5 11 12 0 6 7 3 15 -8 15 -18 15 -17 13 21 -2 25 1 40 9 40 6 0
25 16 42 35 23 26 31 30 31 18 0 -10 4 -18 10 -18 5 0 7 -8 4 -17 -3 -10 4 -3
16 15 21 30 30 35 73 35 9 0 17 4 17 8 0 5 5 9 10 9 6 0 10 -9 10 -20 0 -17 5
-15 35 15 20 19 42 32 49 29 7 -3 16 2 20 11 9 24 26 8 26 -24z m111 -43 c11
-21 11 -22 -4 -9 -10 7 -17 17 -17 22 0 15 9 10 21 -13z m-604 -110 c-3 -8 -6
-5 -6 6 -1 11 2 17 5 13 3 -3 4 -12 1 -19z m13 -25 c-11 -17 -11 -17 -6 0 3
10 6 24 7 30 0 9 2 9 5 0 3 -7 0 -20 -6 -30z m660 -59 c0 -8 -4 -12 -10 -9 -5
3 -10 10 -10 16 0 5 5 9 10 9 6 0 10 -7 10 -16z m650 -134 c0 -5 -2 -10 -4
-10 -3 0 -8 5 -11 10 -3 6 -1 10 4 10 6 0 11 -4 11 -10z m-2681 -156 c2 -2 12
1 22 6 13 7 22 6 33 -6 21 -20 20 -27 -6 -50 -12 -10 -18 -13 -14 -6 4 7 1 12
-8 12 -9 0 -15 -3 -14 -7 2 -5 -5 -19 -15 -33 -15 -21 -19 -23 -28 -10 -8 11
-12 12 -16 3 -6 -17 -35 -17 -51 -1 -10 10 -15 10 -22 -2 -7 -12 -12 -12 -22
-2 -16 16 -98 16 -99 0 0 -7 -4 -4 -8 7 -12 29 -5 35 29 25 36 -10 97 -2 126
17 19 12 24 12 37 -2 19 -18 27 -19 27 -2 0 15 -38 40 -50 32 -11 -7 -23 12
-15 25 5 9 82 4 94 -6z m1431 -18 c0 -2 -7 -9 -15 -16 -13 -11 -14 -10 -9 4 5
14 24 23 24 12z m-1280 -30 c0 -2 -7 -9 -15 -16 -13 -11 -14 -10 -9 4 5 14 24
23 24 12z m-515 -36 c-5 -8 -11 -8 -17 -2 -6 6 -7 16 -3 22 5 8 11 8 17 2 6
-6 7 -16 3 -22z m663 13 c2 -8 -5 -13 -17 -13 -12 0 -21 6 -21 16 0 18 31 15
38 -3z m212 1 c0 -2 -7 -4 -15 -4 -8 0 -15 4 -15 10 0 5 7 7 15 4 8 -4 15 -8
15 -10z m-270 -7 c0 -8 -12 -14 -30 -14 -18 0 -30 6 -30 14 0 8 12 13 30 13
18 0 30 -5 30 -13z m1314 -49 c7 -5 5 -8 -6 -8 -13 0 -18 7 -17 28 1 21 2 22
6 7 3 -11 10 -23 17 -27z m-54 11 c0 -5 -4 -9 -10 -9 -5 0 -10 7 -10 16 0 8 5
12 10 9 6 -3 10 -10 10 -16z m437 -31 c-3 -8 -6 -5 -6 6 -1 11 2 17 5 13 3 -3
4 -12 1 -19z m-380 -20 c-3 -8 -6 -5 -6 6 -1 11 2 17 5 13 3 -3 4 -12 1 -19z
m-1201 -94 c-8 -21 11 -26 26 -7 11 15 23 17 68 12 30 -3 49 -6 42 -7 -7 -1
-13 -12 -12 -24 4 -42 0 -48 -27 -48 -25 0 -26 1 -8 14 17 12 13 14 -44 21
-63 7 -79 19 -67 51 3 8 11 12 17 9 6 -4 8 -13 5 -21z m-86 2 c0 -21 -28 -46
-50 -46 -26 0 -47 38 -25 46 8 4 22 1 30 -6 12 -10 15 -9 15 4 0 9 7 16 15 16
8 0 15 -6 15 -14z m1247 -28 c-3 -8 -6 -5 -6 6 -1 11 2 17 5 13 3 -3 4 -12 1
-19z m553 12 c0 -5 -4 -10 -10 -10 -5 0 -10 5 -10 10 0 6 5 10 10 10 6 0 10
-4 10 -10z m-1757 -20 c3 -11 1 -20 -4 -20 -5 0 -9 9 -9 20 0 11 2 20 4 20 2
0 6 -9 9 -20z m391 -21 c-8 -13 -24 -1 -24 18 0 13 3 13 15 3 8 -7 12 -16 9
-21z m-41 -17 c-6 -24 -5 -25 31 -18 23 4 36 3 36 -4 0 -29 -76 -22 -87 8 -4
9 -12 21 -20 25 -23 14 -14 24 17 19 26 -4 29 -7 23 -30z m1234 -59 c-3 -10
-5 -4 -5 12 0 17 2 24 5 18 2 -7 2 -21 0 -30z m1074 -16 c-8 -8 -11 -5 -11 9
0 27 14 41 18 19 2 -9 -1 -22 -7 -28z m-1104 1 c-3 -8 -6 -5 -6 6 -1 11 2 17
5 13 3 -3 4 -12 1 -19z m1193 7 c11 -13 9 -15 -11 -11 -13 3 -26 5 -29 5 -4 1
21 20 26 21 1 0 7 -7 14 -15z m-740 -5 c0 -5 -7 -10 -16 -10 -8 0 -12 5 -9 10
3 6 10 10 16 10 5 0 9 -4 9 -10z m-281 -26 c12 -15 21 -32 20 -38 0 -7 -3 -6
-6 2 -2 6 -12 12 -20 12 -9 0 -13 6 -9 15 3 8 1 15 -5 15 -5 0 -12 -7 -15 -15
-8 -20 -24 -9 -24 16 0 28 35 24 59 -7z m661 7 c0 -16 -13 -19 -36 -9 -33 15
-30 25 6 20 17 -2 30 -8 30 -11z m199 -6 l41 0 -2 -39 c-1 -32 -3 -36 -13 -22
-7 9 -16 16 -22 16 -12 0 -63 53 -63 66 0 5 5 2 10 -6 5 -9 25 -15 49 -15z
m-1399 5 c0 -5 -2 -10 -4 -10 -3 0 -8 5 -11 10 -3 6 -1 10 4 10 6 0 11 -4 11
-10z m643 -11 c5 -19 2 -20 -21 -15 -15 4 -32 7 -39 8 -24 3 0 28 27 28 20 0
29 -6 33 -21z m687 2 c0 -4 -16 -8 -35 -9 -39 -2 -48 14 -12 20 25 4 47 -1 47
-11z m498 -1 c15 -24 0 -27 -22 -4 -19 19 -20 24 -3 24 7 0 18 -9 25 -20z
m-1078 -5 c10 -12 10 -15 -4 -15 -9 0 -16 7 -16 15 0 8 2 15 4 15 2 0 9 -7 16
-15z m310 5 c0 -5 -4 -10 -10 -10 -5 0 -10 5 -10 10 0 6 5 10 10 10 6 0 10 -4
10 -10z m50 0 c0 -5 -4 -10 -10 -10 -5 0 -10 5 -10 10 0 6 5 10 10 10 6 0 10
-4 10 -10z m-110 -16 c0 -8 -5 -12 -10 -9 -6 4 -8 11 -5 16 9 14 15 11 15 -7z
m660 6 c0 -5 -7 -10 -15 -10 -8 0 -15 5 -15 10 0 6 7 10 15 10 8 0 15 -4 15
-10z m-940 -21 c0 -5 -7 -9 -15 -9 -8 0 -15 7 -15 15 0 9 6 12 15 9 8 -4 15
-10 15 -15z m800 1 c0 -5 -4 -10 -10 -10 -5 0 -10 5 -10 10 0 6 5 10 10 10 6
0 10 -4 10 -10z m-1488 -32 c-7 -7 -12 -8 -12 -2 0 14 12 26 19 19 2 -3 -1
-11 -7 -17z m366 -12 c3 -12 -1 -17 -10 -14 -7 3 -15 13 -16 22 -3 12 1 17 10
14 7 -3 15 -13 16 -22z m-83 -5 c-3 -6 -11 -11 -17 -11 -6 0 -6 6 2 15 14 17
26 13 15 -4z m665 9 c0 -5 -2 -10 -4 -10 -3 0 -8 5 -11 10 -3 6 -1 10 4 10 6
0 11 -4 11 -10z m1090 6 c0 -2 -7 -7 -16 -10 -8 -3 -12 -2 -9 4 6 10 25 14 25
6z m-1380 -16 c0 -5 -5 -10 -11 -10 -5 0 -7 5 -4 10 3 6 8 10 11 10 2 0 4 -4
4 -10z m804 -33 c-3 -9 -14 -19 -25 -22 -10 -4 -19 -11 -19 -16 0 -5 -8 -9
-17 -9 -15 0 -16 -2 -3 -10 17 -11 10 -13 -14 -4 -14 5 -14 8 -1 21 20 19 19
35 -2 31 -10 -2 -19 4 -21 14 -2 13 3 16 25 15 15 -1 31 -6 36 -12 4 -6 12 -3
18 8 13 22 33 9 23 -16z m97 18 c16 -9 27 -20 24 -25 -10 -17 -44 -11 -55 9
-19 36 -13 38 31 16z m224 -25 c-3 -6 -10 -10 -16 -10 -10 0 -12 33 -2 44 9 9
26 -22 18 -34z m86 31 c-7 -5 -10 -14 -6 -21 5 -8 1 -8 -13 1 -25 15 -19 29
11 29 16 0 19 -3 8 -9z m-721 -17 c0 -8 -4 -12 -10 -9 -5 3 -10 10 -10 16 0 5
5 9 10 9 6 0 10 -7 10 -16z m490 6 c0 -5 -4 -10 -10 -10 -5 0 -10 5 -10 10 0
6 5 10 10 10 6 0 10 -4 10 -10z m-1075 -20 c3 -5 1 -10 -4 -10 -6 0 -11 5 -11
10 0 6 2 10 4 10 3 0 8 -4 11 -10z m-523 -41 l17 -41 32 26 c24 20 42 26 82
27 29 0 66 2 82 4 94 11 146 6 182 -16 34 -21 36 -22 29 -3 -6 15 -5 16 5 7
10 -10 9 -17 -6 -33 -18 -20 -18 -20 5 -20 13 0 20 -3 16 -7 -4 -5 -12 -8 -18
-8 -6 0 -12 -8 -14 -18 -2 -15 2 -18 23 -12 22 5 25 3 21 -13 -7 -27 4 -42 33
-44 14 -1 26 -8 26 -15 0 -10 -4 -10 -11 -3 -5 5 -18 10 -27 10 -10 0 -27 11
-37 25 -12 15 -23 21 -27 15 -3 -5 -1 -10 4 -10 6 0 11 -4 11 -8 0 -12 -78
-44 -90 -37 -6 4 -16 3 -23 -2 -7 -5 -52 -9 -102 -8 l-90 0 -3 33 c-2 18 1 32
7 32 6 0 11 8 10 18 0 9 -3 12 -5 5 -3 -7 -12 -9 -20 -6 -8 3 -25 -2 -39 -11
-13 -9 -33 -16 -45 -16 -15 0 -20 -7 -20 -27 0 -43 -13 -54 -66 -57 -71 -5
-114 3 -107 20 3 9 -8 20 -32 30 -37 15 -37 16 -31 60 5 40 4 44 -15 44 -41 0
-12 25 32 27 90 5 129 14 129 28 0 12 43 43 60 44 3 1 13 -18 22 -40z m738 21
c0 -5 -4 -10 -10 -10 -5 0 -10 5 -10 10 0 6 5 10 10 10 6 0 10 -4 10 -10z m30
6 c0 -3 -4 -8 -10 -11 -5 -3 -10 -1 -10 4 0 6 5 11 10 11 6 0 10 -2 10 -4z
m707 -33 c-3 -3 -11 -2 -17 2 -8 5 -7 11 2 22 12 15 13 14 16 -1 2 -10 1 -20
-1 -23z m188 27 c3 -5 2 -10 -4 -10 -5 0 -13 5 -16 10 -3 6 -2 10 4 10 5 0 13
-4 16 -10z m-1035 -30 c0 -5 -9 -9 -20 -7 -31 5 -36 17 -7 17 15 0 27 -4 27
-10z m80 0 c0 -5 -7 -10 -16 -10 -8 0 -12 5 -9 10 3 6 10 10 16 10 5 0 9 -4 9
-10z m180 0 c0 -5 -7 -10 -15 -10 -8 0 -15 5 -15 10 0 6 7 10 15 10 8 0 15 -4
15 -10z m245 0 c3 -5 2 -10 -4 -10 -5 0 -13 5 -16 10 -3 6 -2 10 4 10 5 0 13
-4 16 -10z m130 4 c13 -5 14 -8 3 -15 -19 -13 -28 -11 -28 6 0 17 2 18 25 9z
m163 1 c-2 -1 -13 -8 -25 -14 -19 -9 -23 -9 -23 2 0 9 10 15 25 15 14 0 25 -2
23 -3z m542 1 c0 -3 -4 -8 -10 -11 -5 -3 -10 -1 -10 4 0 6 5 11 10 11 6 0 10
-2 10 -4z m-1150 -36 c0 -18 -19 -11 -30 11 -11 19 -10 20 9 9 12 -6 21 -15
21 -20z m405 21 c3 -5 1 -12 -5 -16 -5 -3 -10 1 -10 9 0 18 6 21 15 7z m-115
-21 c0 -5 -4 -10 -9 -10 -6 0 -13 5 -16 10 -3 6 1 10 9 10 9 0 16 -4 16 -10z
m220 0 c0 -5 -4 -10 -10 -10 -5 0 -10 5 -10 10 0 6 5 10 10 10 6 0 10 -4 10
-10z m-470 -10 c0 -5 -4 -10 -10 -10 -5 0 -10 5 -10 10 0 6 5 10 10 10 6 0 10
-4 10 -10z m515 0 c3 -5 2 -10 -4 -10 -5 0 -13 5 -16 10 -3 6 -2 10 4 10 5 0
13 -4 16 -10z m406 -33 c-8 -8 -11 -3 -11 19 1 25 2 27 11 11 8 -14 8 -22 0
-30z m29 33 c0 -5 -4 -10 -10 -10 -5 0 -10 5 -10 10 0 6 5 10 10 10 6 0 10 -4
10 -10z m-137 -19 c6 -24 0 -31 -25 -31 -26 0 -22 -18 5 -23 l22 -4 -22 -8
c-13 -4 -23 -11 -23 -16 0 -5 -5 -9 -11 -9 -6 0 -7 5 -2 13 4 6 8 21 8 32 0
12 9 22 25 26 16 4 19 7 8 8 -18 1 -23 12 -11 24 11 12 21 8 26 -12z m287 8
c0 -10 -27 -19 -34 -12 -11 12 -6 19 14 19 11 0 20 -3 20 -7z m60 -5 c0 -2 -7
-4 -15 -4 -8 0 -15 4 -15 10 0 5 7 7 15 4 8 -4 15 -8 15 -10z m-300 -4 c0 -5
-4 -10 -10 -10 -5 0 -10 5 -10 10 0 6 5 10 10 10 6 0 10 -4 10 -10z m127 4
c-3 -3 -12 -4 -19 -1 -8 3 -5 6 6 6 11 1 17 -2 13 -5z m-1287 -14 c-20 -13
-33 -13 -25 0 3 6 14 10 23 10 15 0 15 -2 2 -10z m700 0 c0 -5 -4 -10 -10 -10
-5 0 -10 5 -10 10 0 6 5 10 10 10 6 0 10 -4 10 -10z m340 0 c0 -5 -5 -10 -11
-10 -5 0 -7 5 -4 10 3 6 8 10 11 10 2 0 4 -4 4 -10z m150 0 c0 -5 -4 -10 -10
-10 -5 0 -10 5 -10 10 0 6 5 10 10 10 6 0 10 -4 10 -10z m-1125 -10 c-3 -5
-12 -10 -18 -10 -7 0 -6 4 3 10 19 12 23 12 15 0z m299 4 c9 -3 16 -14 15 -23
0 -10 -2 -11 -6 -3 -2 6 -11 12 -19 12 -8 0 -14 5 -14 10 0 12 3 12 24 4z
m1066 -4 c0 -5 -7 -10 -16 -10 -12 0 -15 -7 -12 -25 6 -27 1 -30 -22 -15 -11
7 -12 10 -2 10 8 0 12 6 9 13 -2 6 3 17 12 24 20 15 31 16 31 3z m-1130 -4 c0
-11 -19 -15 -25 -6 -3 5 1 10 9 10 9 0 16 -2 16 -4z m564 -11 c-4 -10 0 -15
12 -16 12 0 14 -3 6 -6 -14 -5 -42 14 -42 28 0 5 7 9 15 9 9 0 12 -6 9 -15z
m-922 -17 c-6 -6 -15 -8 -19 -4 -4 4 -1 11 7 16 19 12 27 3 12 -12z m158 12
c0 -5 -7 -10 -15 -10 -8 0 -15 5 -15 10 0 6 7 10 15 10 8 0 15 -4 15 -10z
m505 0 c-3 -5 -10 -10 -16 -10 -5 0 -9 5 -9 10 0 6 7 10 16 10 8 0 12 -4 9
-10z m132 -9 c1 -14 -3 -18 -13 -14 -11 4 -12 9 -3 19 15 18 14 18 16 -5z
m-3162 -1 c-3 -5 -1 -10 4 -10 6 0 11 -4 11 -10 0 -17 -14 -11 -28 10 -10 17
-10 20 4 20 8 0 12 -4 9 -10z m185 -22 c0 -12 -13 -9 -32 6 -26 19 -22 26 7
13 14 -7 25 -15 25 -19z m-250 18 c0 -2 -8 -10 -17 -17 -16 -13 -17 -12 -4 4
13 16 21 21 21 13z m2660 -6 c0 -5 -4 -10 -10 -10 -5 0 -10 5 -10 10 0 6 5 10
10 10 6 0 10 -4 10 -10z m251 -3 c-1 -12 -15 -9 -19 4 -3 6 1 10 8 8 6 -3 11
-8 11 -12z m586 -9 c-3 -8 -6 -5 -6 6 -1 11 2 17 5 13 3 -3 4 -12 1 -19z m433
18 c0 -3 -4 -8 -10 -11 -5 -3 -10 -1 -10 4 0 6 5 11 10 11 6 0 10 -2 10 -4z
m-639 -26 c9 0 23 -8 30 -17 13 -15 12 -16 -6 -8 -11 5 -32 9 -47 9 -16 1 -28
6 -28 12 0 17 13 25 24 14 5 -5 18 -10 27 -10z m-2961 0 c0 -5 -2 -10 -4 -10
-3 0 -8 5 -11 10 -3 6 -1 10 4 10 6 0 11 -4 11 -10z m3080 -1 c12 -8 10 -9 -7
-4 -13 3 -23 3 -23 -2 0 -4 -9 -14 -19 -20 -16 -10 -18 -9 -14 7 4 16 15 23
43 29 3 0 12 -4 20 -10z m-216 -14 c-4 -8 -8 -15 -10 -15 -2 0 -4 7 -4 15 0 8
4 15 10 15 5 0 7 -7 4 -15z m-3106 -8 c6 0 12 -6 12 -13 0 -8 -6 -11 -16 -7
-14 5 -16 2 -10 -20 4 -16 2 -27 -4 -27 -9 0 -15 29 -11 53 0 4 -3 7 -9 7 -5
0 -10 5 -10 11 0 7 7 8 18 4 9 -4 23 -8 30 -8z m2287 3 c3 -5 1 -10 -4 -10 -6
0 -11 5 -11 10 0 6 2 10 4 10 3 0 8 -4 11 -10z m525 -6 c0 -8 -5 -12 -10 -9
-6 4 -8 11 -5 16 9 14 15 11 15 -7z m145 6 c3 -5 1 -10 -4 -10 -6 0 -11 5 -11
10 0 6 2 10 4 10 3 0 8 -4 11 -10z m-2635 -10 c0 -5 -7 -10 -15 -10 -8 0 -15
5 -15 10 0 6 7 10 15 10 8 0 15 -4 15 -10z m85 0 c-3 -5 -15 -10 -26 -10 -10
0 -19 5 -19 10 0 6 12 10 26 10 14 0 23 -4 19 -10z m3320 -8 c-3 -3 -11 0 -18
7 -9 10 -8 11 6 5 10 -3 15 -9 12 -12z m-3815 -2 c0 -5 -4 -10 -10 -10 -5 0
-10 5 -10 10 0 6 5 10 10 10 6 0 10 -4 10 -10z m200 -6 c0 -8 -5 -12 -10 -9
-6 4 -8 11 -5 16 9 14 15 11 15 -7z m405 6 c-3 -5 -15 -10 -26 -10 -22 0 -24
-12 -8 -42 6 -12 7 -18 1 -14 -5 3 -15 -1 -22 -9 -7 -8 -18 -15 -24 -15 -6 1
-1 9 12 20 l23 19 -21 11 c-16 8 -30 8 -52 1 -17 -6 -34 -9 -38 -6 -5 3 -16
-2 -25 -11 -9 -9 -18 -14 -21 -12 -12 12 41 42 78 44 22 1 48 9 56 18 18 17
77 23 67 6z m2406 -6 c12 -14 11 -16 -5 -13 -11 2 -21 10 -24 17 -5 17 13 15
29 -4z m89 12 c0 -3 -4 -8 -10 -11 -5 -3 -10 -1 -10 4 0 6 5 11 10 11 6 0 10
-2 10 -4z m-2929 -28 c19 -23 19 -23 34 -4 8 11 17 17 21 14 3 -3 -2 -15 -12
-26 -17 -20 -18 -20 -43 -3 -14 10 -32 16 -40 13 -12 -4 -12 -3 0 11 18 21 17
21 40 -5z m505 10 c4 -6 3 -8 -4 -4 -6 3 -17 -1 -25 -9 -22 -21 -29 -19 -15 5
14 22 33 26 44 8z m1834 8 c0 -3 -4 -8 -10 -11 -5 -3 -10 -1 -10 4 0 6 5 11
10 11 6 0 10 -2 10 -4z m-1686 -26 c-10 -4 -23 -5 -28 -2 -13 7 16 21 32 14
13 -4 12 -7 -4 -12z m2107 3 c13 -16 12 -17 -3 -4 -17 13 -22 21 -14 21 2 0
10 -8 17 -17z m824 7 c3 -5 -3 -10 -15 -10 -12 0 -18 5 -15 10 3 6 10 10 15
10 5 0 12 -4 15 -10z m-3345 -10 c0 -5 -4 -10 -10 -10 -5 0 -10 5 -10 10 0 6
5 10 10 10 6 0 10 -4 10 -10z m361 -3 c-1 -12 -15 -9 -19 4 -3 6 1 10 8 8 6
-3 11 -8 11 -12z m-794 -19 c-3 -8 -6 -5 -6 6 -1 11 2 17 5 13 3 -3 4 -12 1
-19z m2853 12 c0 -5 -7 -10 -15 -10 -8 0 -15 5 -15 10 0 6 7 10 15 10 8 0 15
-4 15 -10z m420 -31 c0 -7 -6 -4 -15 7 -19 25 -19 40 0 20 8 -8 15 -20 15 -27z
m-2125 22 c8 -14 -10 -22 -30 -15 -13 5 -14 8 -3 15 17 11 26 11 33 0z m-770
-11 c3 -5 -1 -10 -9 -10 -10 0 -13 -6 -10 -15 4 -8 1 -15 -5 -15 -6 0 -11 11
-11 25 0 25 23 35 35 15z m-265 -9 c0 -6 -4 -13 -10 -16 -5 -3 -10 1 -10 9 0
9 5 16 10 16 6 0 10 -4 10 -9z m40 -6 c0 -8 -2 -15 -4 -15 -2 0 -6 7 -10 15
-3 8 -1 15 4 15 6 0 10 -7 10 -15z m40 5 c0 -5 -2 -10 -4 -10 -3 0 -8 5 -11
10 -3 6 -1 10 4 10 6 0 11 -4 11 -10z m560 0 c-8 -5 -22 -10 -30 -10 -13 0
-13 1 0 10 8 5 22 10 30 10 13 0 13 -1 0 -10z m265 -6 c-9 -9 -19 -13 -23 -10
-3 4 0 11 8 16 24 15 33 11 15 -6z m275 6 c0 -5 -5 -10 -11 -10 -5 0 -7 5 -4
10 3 6 8 10 11 10 2 0 4 -4 4 -10z m-1010 -31 c0 -5 -4 -9 -10 -9 -5 0 -10 7
-10 15 0 9 -6 12 -17 9 -15 -5 -15 -4 -3 4 15 11 40 -1 40 -19z m25 21 c3 -5
1 -10 -4 -10 -6 0 -11 5 -11 10 0 6 2 10 4 10 3 0 8 -4 11 -10z m749 -5 c-6
-16 -24 -21 -24 -7 0 11 11 22 21 22 5 0 6 -7 3 -15z m-534 -4 c0 -12 -39 -25
-47 -17 -4 3 1 6 11 6 9 0 14 5 11 10 -3 6 1 10 9 10 9 0 16 -4 16 -9z m130
-1 c0 -5 -5 -10 -11 -10 -5 0 -7 5 -4 10 3 6 8 10 11 10 2 0 4 -4 4 -10z m155
0 c3 -5 -1 -10 -9 -10 -9 0 -16 5 -16 10 0 6 4 10 9 10 6 0 13 -4 16 -10z
m285 0 c0 -5 -4 -10 -10 -10 -5 0 -10 5 -10 10 0 6 5 10 10 10 6 0 10 -4 10
-10z m150 0 c0 -5 -8 -10 -17 -10 -15 0 -16 2 -3 10 19 12 20 12 20 0z m330
-5 c-7 -9 -15 -13 -17 -11 -7 7 7 26 19 26 6 0 6 -6 -2 -15z m495 5 c3 -5 1
-10 -4 -10 -6 0 -11 5 -11 10 0 6 2 10 4 10 3 0 8 -4 11 -10z m465 0 c0 -5 -2
-10 -4 -10 -3 0 -8 5 -11 10 -3 6 -1 10 4 10 6 0 11 -4 11 -10z m1110 -5 c7
-8 8 -15 2 -15 -5 0 -15 7 -22 15 -7 8 -8 15 -2 15 5 0 15 -7 22 -15z m59 1
c10 -12 8 -13 -11 -8 -20 5 -21 3 -10 -10 10 -13 10 -17 -1 -21 -13 -5 -15 6
-8 46 2 12 18 8 30 -7z m151 8 c0 -3 -5 -14 -10 -25 -16 -28 -30 -23 -17 6 11
22 27 34 27 19z m-3768 -24 l22 -20 -25 0 c-18 0 -25 6 -26 20 -1 11 0 20 3
20 3 0 14 -9 26 -20z m131 13 c-7 -2 -19 -2 -25 0 -7 3 -2 5 12 5 14 0 19 -2
13 -5z m219 -15 c-7 -7 -12 -8 -12 -2 0 14 12 26 19 19 2 -3 -1 -11 -7 -17z
m756 4 c2 -7 -2 -10 -12 -6 -9 3 -16 11 -16 16 0 13 23 5 28 -10z m132 8 c0
-5 -5 -10 -11 -10 -5 0 -7 5 -4 10 3 6 8 10 11 10 2 0 4 -4 4 -10z m2133 -10
c3 -11 3 -20 1 -20 -2 0 -8 9 -14 20 -6 11 -7 20 -2 20 6 0 12 -9 15 -20z
m-3216 -15 c-9 -7 -14 -15 -10 -18 3 -4 1 -7 -5 -7 -7 0 -12 6 -12 13 0 18 21
37 33 30 6 -4 3 -11 -6 -18z m523 15 c0 -5 -7 -10 -15 -10 -8 0 -15 5 -15 10
0 6 7 10 15 10 8 0 15 -4 15 -10z m284 -29 c-6 -6 -34 20 -34 32 0 6 8 2 19
-9 10 -10 17 -21 15 -23z m241 29 c3 -5 -1 -10 -9 -10 -9 0 -16 5 -16 10 0 6
4 10 9 10 6 0 13 -4 16 -10z m325 -5 c0 -8 -7 -15 -15 -15 -26 0 -18 20 13 29
1 1 2 -6 2 -14z m489 -25 c0 -10 -3 -8 -9 5 -12 27 -12 43 0 25 5 -8 9 -22 9
-30z m411 36 c0 -3 -4 -8 -10 -11 -5 -3 -10 -1 -10 4 0 6 5 11 10 11 6 0 10
-2 10 -4z m100 -22 c0 -8 -4 -12 -10 -9 -5 3 -10 13 -10 21 0 8 5 12 10 9 6
-3 10 -13 10 -21z m-2455 4 c-6 -17 16 -45 39 -49 25 -5 32 -26 9 -24 -26 2
-49 17 -60 40 -11 21 -7 45 8 45 4 0 6 -6 4 -12z m700 2 c3 -5 -1 -10 -9 -10
-8 0 -18 5 -21 10 -3 6 1 10 9 10 8 0 18 -4 21 -10z m135 -5 c11 -13 8 -15
-15 -15 -23 0 -26 2 -15 15 7 8 14 15 15 15 1 0 8 -7 15 -15z m490 5 c0 -5 -5
-10 -11 -10 -5 0 -7 5 -4 10 3 6 8 10 11 10 2 0 4 -4 4 -10z m344 -6 c3 -8 2
-13 -3 -9 -5 3 -11 -1 -14 -7 -2 -7 -8 -10 -12 -6 -4 4 -1 14 6 22 17 19 16
19 23 0z m60 1 c3 -8 1 -15 -4 -15 -6 0 -10 7 -10 15 0 8 2 15 4 15 2 0 6 -7
10 -15z m101 -5 c10 -11 16 -20 13 -20 -3 0 -13 9 -23 20 -10 11 -16 20 -13
20 3 0 13 -9 23 -20z m435 10 c0 -5 -2 -10 -4 -10 -3 0 -8 5 -11 10 -3 6 -1
10 4 10 6 0 11 -4 11 -10z m1495 -19 c-6 -5 -25 10 -25 20 0 5 6 4 14 -3 8 -7
12 -15 11 -17z m-3630 9 c3 -5 1 -10 -4 -10 -6 0 -11 5 -11 10 0 6 2 10 4 10
3 0 8 -4 11 -10z m400 0 c3 -5 1 -10 -4 -10 -6 0 -11 5 -11 10 0 6 2 10 4 10
3 0 8 -4 11 -10z m109 -31 c-7 -12 -34 -11 -34 0 0 5 3 17 7 27 6 16 7 16 19
-1 7 -10 11 -22 8 -26z m136 32 c0 -13 -29 -35 -37 -28 -7 8 15 37 28 37 5 0
9 -4 9 -9z m303 -5 c6 -15 -29 -33 -40 -22 -4 3 -1 6 5 6 7 0 12 7 12 15 0 19
16 20 23 1z m1762 5 c3 -5 1 -12 -5 -16 -5 -3 -10 1 -10 9 0 18 6 21 15 7z
m-2642 -8 c-7 -2 -19 -2 -25 0 -7 3 -2 5 12 5 14 0 19 -2 13 -5z m205 -2 l24
-6 -21 -24 c-12 -13 -21 -25 -21 -27 0 -7 35 10 42 20 10 16 18 3 12 -20 -4
-16 -12 -20 -29 -17 -12 3 -26 0 -29 -6 -10 -16 -26 -13 -26 4 0 8 5 15 10 15
6 0 10 7 10 15 0 18 -17 20 -23 3 -2 -7 -8 -10 -12 -6 -13 12 17 40 37 35 25
-7 22 2 -4 13 -26 10 -5 11 30 1z m179 3 c-3 -3 -12 -4 -19 -1 -8 3 -5 6 6 6
11 1 17 -2 13 -5z m630 0 c-3 -3 -12 -4 -19 -1 -8 3 -5 6 6 6 11 1 17 -2 13
-5z m1518 -23 c-6 -21 -25 -29 -25 -11 0 6 5 10 10 10 6 0 10 8 10 17 0 9 3
14 6 10 3 -3 3 -15 -1 -26z m1071 -8 c-2 -36 -3 -37 -39 -38 -20 -1 -42 4 -48
12 -9 10 -8 13 5 13 9 0 16 -6 16 -12 0 -9 3 -8 10 2 5 8 15 15 22 15 7 0 14
10 16 23 6 37 21 25 18 -15z m-2668 7 c-14 -22 -24 -19 -15 5 4 8 11 15 17 15
6 0 6 -7 -2 -20z m102 10 c0 -5 -5 -10 -11 -10 -5 0 -7 5 -4 10 3 6 8 10 11
10 2 0 4 -4 4 -10z m296 -17 c-7 -7 -26 7 -26 19 0 6 6 6 15 -2 9 -7 13 -15
11 -17z m1159 17 c3 -6 -1 -7 -9 -4 -18 7 -21 14 -7 14 6 0 13 -4 16 -10z
m185 0 c0 -5 7 -10 15 -10 8 0 15 -7 15 -15 0 -12 4 -13 19 -4 28 18 54 4 48
-27 -4 -21 1 -27 31 -40 20 -8 41 -13 48 -10 15 6 34 -13 34 -33 0 -12 -2 -12
-12 2 -11 14 -20 15 -57 6 -44 -10 -81 -5 -81 12 0 12 23 12 36 0 5 -5 17 -6
28 -2 14 6 9 10 -24 20 -28 8 -39 16 -31 21 17 10 -13 22 -34 14 -8 -4 -15 -1
-15 5 0 6 -4 11 -10 11 -5 0 -7 -7 -4 -15 4 -8 1 -15 -5 -15 -6 0 -11 9 -11
19 0 11 -5 23 -11 27 -8 4 -7 9 2 15 11 7 11 9 1 9 -7 0 -10 5 -7 10 3 6 10
10 16 10 5 0 9 -4 9 -10z m222 -23 c15 -19 26 -77 14 -77 -14 0 -36 14 -36 22
0 6 7 7 16 4 8 -3 12 -2 9 4 -9 15 -35 12 -41 -5 -4 -8 -14 -15 -23 -15 -14 1
-14 2 -1 13 18 14 14 56 -6 64 -8 3 -14 10 -14 15 0 17 64 -3 82 -25z m-1825
17 c-3 -3 -12 -4 -19 -1 -8 3 -5 6 6 6 11 1 17 -2 13 -5z m416 -9 c4 -8 2 -17
-3 -20 -6 -4 -10 3 -10 14 0 25 6 27 13 6z m270 -23 c-11 -9 -22 -25 -26 -34
-6 -17 3 -22 40 -21 6 0 9 -6 6 -15 -4 -10 -2 -13 5 -8 7 4 12 2 12 -3 0 -6
-9 -11 -20 -11 -11 0 -20 7 -20 15 0 8 -4 15 -10 15 -5 0 -10 -4 -10 -9 0 -5
-7 -11 -14 -14 -10 -4 -13 -1 -10 7 3 8 1 17 -5 21 -6 3 -11 11 -11 16 0 6 5
7 10 4 6 -3 10 -2 10 3 0 15 55 71 58 61 2 -6 -5 -18 -15 -27z m47 18 c-8 -5
-17 -7 -19 -4 -3 3 1 9 9 14 8 5 17 7 19 4 3 -3 -1 -9 -9 -14z m650 10 c0 -5
-4 -10 -10 -10 -5 0 -10 5 -10 10 0 6 5 10 10 10 6 0 10 -4 10 -10z m105 0 c3
-5 1 -10 -4 -10 -6 0 -11 5 -11 10 0 6 2 10 4 10 3 0 8 -4 11 -10z m770 0 c-3
-5 -13 -10 -21 -10 -8 0 -12 5 -9 10 3 6 13 10 21 10 8 0 12 -4 9 -10z m85 0
c8 -5 11 -10 5 -10 -5 0 -17 5 -25 10 -8 5 -10 10 -5 10 6 0 17 -5 25 -10z
m-2940 -10 c0 -5 -2 -10 -4 -10 -3 0 -8 5 -11 10 -3 6 -1 10 4 10 6 0 11 -4
11 -10z m1006 -40 c8 0 14 -8 14 -19 0 -11 9 -21 22 -24 18 -5 19 -9 9 -21
-11 -13 -9 -16 13 -22 13 -3 30 -3 35 1 7 3 8 0 5 -9 -4 -11 -11 -13 -31 -5
-32 12 -33 12 -27 -6 7 -17 -44 -34 -55 -18 -9 14 -61 25 -61 13 0 -5 -4 -10
-10 -10 -5 0 -10 9 -10 20 0 23 12 25 40 8 25 -16 52 4 32 24 -7 7 -11 23 -11
37 1 17 3 20 6 9 2 -10 11 -18 19 -18 18 0 18 8 -1 26 -8 9 -14 27 -14 42 l2
27 4 -27 c2 -16 11 -28 19 -28z m54 40 c0 -5 -4 -10 -10 -10 -5 0 -10 5 -10
10 0 6 5 10 10 10 6 0 10 -4 10 -10z m905 -21 c11 -11 -23 -8 -42 4 -7 4 -21
4 -31 -2 -14 -7 -18 -6 -18 8 0 16 5 17 41 9 22 -5 44 -14 50 -19z m768 16
c20 1 37 -3 37 -7 0 -4 -9 -8 -19 -8 -11 0 -23 -4 -26 -10 -9 -15 -25 -12 -25
5 0 9 -9 15 -24 15 -14 0 -28 5 -31 10 -5 7 3 8 22 3 15 -4 45 -8 66 -8z
m-2188 -5 c3 -5 1 -10 -4 -10 -6 0 -11 5 -11 10 0 6 2 10 4 10 3 0 8 -4 11
-10z m160 0 c3 -5 0 -10 -9 -10 -8 0 -23 -3 -33 -6 -16 -5 -16 -4 1 10 23 19
32 20 41 6z m482 -12 c-3 -8 -6 -5 -6 6 -1 11 2 17 5 13 3 -3 4 -12 1 -19z
m848 -18 c14 -8 15 -10 3 -6 -10 3 -20 1 -23 -4 -8 -13 -45 -13 -45 0 0 6 7
10 16 10 11 0 14 6 9 23 -6 19 -6 20 6 6 8 -9 23 -22 34 -29z m-2825 26 c0
-11 -19 -15 -25 -6 -3 5 1 10 9 10 9 0 16 -2 16 -4z m2140 -17 c0 -15 -5 -20
-22 -17 -12 2 -23 10 -26 18 -4 12 -2 13 9 3 18 -17 29 -16 29 2 0 8 2 15 5
15 3 0 5 -9 5 -21z m1005 2 c6 -15 -10 -31 -31 -31 -6 0 -11 11 -11 24 0 18 5
24 18 23 10 -1 21 -8 24 -16z m205 9 c0 -5 -4 -10 -9 -10 -6 0 -13 5 -16 10
-3 6 1 10 9 10 9 0 16 -4 16 -10z m40 -11 c0 -5 -4 -9 -10 -9 -5 0 -10 7 -10
16 0 8 5 12 10 9 6 -3 10 -10 10 -16z m260 14 c0 -13 43 -28 68 -25 16 2 22 8
18 18 -7 17 -2 18 24 2 18 -12 17 -13 -12 -25 -16 -7 -39 -13 -49 -13 -11 0
-19 -5 -19 -11 0 -8 -5 -8 -15 1 -12 10 -18 10 -30 0 -10 -8 -15 -9 -15 -1 0
6 11 13 25 17 l25 6 -23 19 c-12 10 -16 18 -9 19 6 0 12 -3 12 -7z m-1080 -12
c0 -4 -12 -7 -26 -5 -38 4 -42 14 -6 14 18 0 32 -4 32 -9z m37 -11 c-1 -22
-17 -28 -17 -7 0 12 9 27 16 27 2 0 2 -9 1 -20z m-697 0 c0 -5 -8 -10 -17 -10
-15 0 -16 2 -3 10 19 12 20 12 20 0z m1055 0 c8 -13 -5 -13 -25 0 -13 8 -13
10 2 10 9 0 20 -4 23 -10z m326 -4 c-8 -10 -8 -21 -1 -40 14 -37 14 -36 -25
-36 -19 0 -35 5 -35 10 0 6 9 10 20 10 23 0 26 14 6 32 -11 10 -10 15 8 24 29
17 41 17 27 0z m151 7 c-10 -4 -9 -8 3 -17 16 -12 11 -51 -6 -41 -4 3 -24 6
-44 7 -23 1 -31 4 -23 10 10 6 10 10 -2 17 -10 7 -20 5 -33 -7 -18 -16 -18
-17 0 -23 15 -6 15 -8 2 -8 -9 -1 -24 10 -33 24 -16 24 -15 25 9 31 14 3 35 4
48 1 12 -3 31 -1 42 3 11 5 27 9 35 9 11 -1 11 -2 2 -6z m108 0 c0 -5 -6 -16
-14 -25 -13 -18 -56 -15 -56 4 0 6 9 8 20 5 10 -3 24 1 31 9 13 16 19 18 19 7z
m-812 -21 c6 -18 -15 -14 -22 4 -4 10 -1 14 6 12 6 -2 14 -10 16 -16z m209 -6
c12 3 28 2 36 -3 13 -7 13 -10 1 -21 -12 -11 -14 -10 -14 3 0 8 -4 15 -10 15
-5 0 -10 -4 -10 -10 0 -5 -6 -10 -14 -10 -8 0 -16 -5 -18 -12 -3 -7 -12 -9
-22 -5 -9 4 -14 11 -11 17 4 6 11 8 16 5 5 -4 9 -1 9 4 0 6 -8 12 -17 12 -17
1 -17 2 0 6 9 2 15 10 11 16 -3 7 1 4 9 -5 8 -11 22 -15 34 -12z m-257 -2 c0
-2 -12 -4 -26 -4 -14 0 -23 4 -20 9 6 8 46 4 46 -5z m-798 -6 c17 17 33 15 18
-3 -10 -12 -10 -15 3 -15 8 0 17 4 19 9 2 5 17 3 33 -5 l30 -14 -32 6 c-27 5
-33 2 -33 -12 0 -16 -1 -16 -20 1 -18 16 -20 16 -26 1 -9 -23 -23 -20 -17 4 3
11 0 20 -6 20 -6 0 -11 5 -11 11 0 8 5 7 15 -1 12 -10 19 -10 27 -2z m314 -3
c-11 -9 -17 -22 -14 -33 4 -15 0 -19 -18 -19 -28 0 -57 28 -36 34 6 3 12 10
12 17 0 8 15 13 38 14 34 1 35 0 18 -13z m334 0 c-15 -18 -26 -19 -33 -2 -3 8
4 14 20 15 22 2 24 0 13 -13z m323 6 c4 0 7 -5 7 -10 0 -5 -16 -9 -35 -9 -23
0 -35 5 -35 13 0 12 13 14 63 6z m697 0 c0 -6 -4 -13 -10 -16 -5 -3 -10 1 -10
9 0 9 5 16 10 16 6 0 10 -4 10 -9z m-1137 -22 c-6 -6 -17 -8 -24 -3 -9 5 -8 9
7 14 23 9 31 3 17 -11z m57 -15 c0 -3 -7 -1 -15 6 -8 7 -15 17 -15 22 0 5 7 3
15 -6 8 -8 15 -18 15 -22z m295 26 c3 -5 1 -10 -4 -10 -6 0 -11 5 -11 10 0 6
2 10 4 10 3 0 8 -4 11 -10z m1105 -11 c0 -11 -49 -24 -57 -15 -4 3 4 6 16 6
16 0 21 4 18 14 -4 10 -1 13 9 9 7 -3 14 -9 14 -14z m-2940 -24 c0 -5 -5 -3
-10 5 -5 8 -10 20 -10 25 0 6 5 3 10 -5 5 -8 10 -19 10 -25z m1700 25 c0 -5
-4 -10 -10 -10 -5 0 -10 5 -10 10 0 6 5 10 10 10 6 0 10 -4 10 -10z m1114 -19
c35 2 46 0 46 -12 0 -6 -9 -8 -20 -4 -13 4 -20 2 -18 -5 2 -7 -3 -15 -10 -17
-8 -3 -10 1 -5 13 4 11 2 15 -7 12 -16 -5 -51 22 -44 34 3 4 12 1 21 -7 8 -9
25 -15 37 -14z m-1524 4 c0 -8 -4 -15 -10 -15 -5 0 -10 7 -10 15 0 8 5 15 10
15 6 0 10 -7 10 -15z m1445 5 c3 -5 3 -15 -1 -21 -5 -8 -10 -6 -16 5 -8 14
-13 15 -24 5 -9 -7 -14 -8 -14 -1 0 19 45 29 55 12z m-1135 -10 c0 -5 -4 -10
-10 -10 -5 0 -10 5 -10 10 0 6 5 10 10 10 6 0 10 -4 10 -10z m269 -4 c9 -11 6
-12 -14 -8 -14 2 -22 8 -19 13 8 13 20 11 33 -5z m-222 -13 c0 -17 -13 -17
-20 0 -3 8 0 14 7 14 7 0 13 -6 13 -14z m788 7 c-3 -5 -11 -10 -16 -10 -6 0
-7 5 -4 10 3 6 11 10 16 10 6 0 7 -4 4 -10z m195 0 c0 -6 -11 -8 -27 -4 -40
10 -41 14 -5 14 18 0 32 -5 32 -10z m-1448 -12 c-8 -8 -18 -8 -34 -1 -21 9
-20 10 11 11 25 0 31 -2 23 -10z m356 -13 c3 -3 0 -11 -6 -17 -9 -9 -12 -8
-12 5 0 25 -18 21 -22 -5 -2 -12 -9 -23 -16 -26 -11 -3 -12 0 -2 17 9 17 9 26
0 36 -10 12 -6 13 21 5 17 -5 34 -12 37 -15z m19 19 c-3 -3 -12 -4 -19 -1 -8
3 -5 6 6 6 11 1 17 -2 13 -5z m470 0 c-3 -3 -12 -4 -19 -1 -8 3 -5 6 6 6 11 1
17 -2 13 -5z m43 -14 c0 -5 -7 -7 -15 -4 -8 4 -15 8 -15 10 0 2 7 4 15 4 8 0
15 -4 15 -10z m34 -5 c-4 -8 -10 -15 -15 -15 -4 0 -6 7 -3 15 4 8 10 15 15 15
4 0 6 -7 3 -15z m398 -1 c22 -11 27 -18 18 -24 -7 -4 -9 -13 -6 -19 4 -6 1
-11 -8 -11 -19 0 -30 17 -16 25 6 4 1 14 -12 25 -28 24 -17 25 24 4z m81 2 c4
-10 1 -13 -9 -9 -15 6 -19 23 -5 23 5 0 11 -7 14 -14z m87 -14 c0 -8 -1 -13
-3 -11 -1 2 -9 12 -16 22 -12 15 -12 17 3 11 9 -3 16 -13 16 -22z m-1350 8 c0
-13 -11 -13 -30 0 -12 8 -11 10 8 10 12 0 22 -4 22 -10z m77 4 c-3 -3 -12 -4
-19 -1 -8 3 -5 6 6 6 11 1 17 -2 13 -5z m170 -16 c2 -18 0 -20 -7 -8 -12 18
-13 30 -2 30 4 0 9 -10 9 -22z m37 7 c-4 -8 -10 -12 -15 -9 -11 6 -2 24 11 24
5 0 7 -7 4 -15z m664 -1 c-2 -2 -21 -5 -42 -8 -42 -5 -38 10 4 16 24 4 45 0
38 -8z m-1050 -3 c10 -6 5 -12 -18 -21 -36 -15 -52 -6 -24 15 22 17 25 17 42
6z m958 -18 c-7 -7 -26 7 -26 19 0 6 6 6 15 -2 9 -7 13 -15 11 -17z m786 11
c31 -11 28 -30 -6 -30 -25 1 -31 5 -31 24 0 12 5 20 10 17 6 -3 18 -8 27 -11z
m-812 -26 c0 -12 -14 -10 -28 4 -19 19 -14 29 8 16 11 -7 20 -16 20 -20z m240
13 c0 -7 -68 -8 -80 -1 -3 1 9 5 25 9 31 8 55 4 55 -8z m343 12 c-7 -2 -19 -2
-25 0 -7 3 -2 5 12 5 14 0 19 -2 13 -5z m-1097 -30 c-7 -7 -26 7 -26 19 0 6 6
6 15 -2 9 -7 13 -15 11 -17z m822 15 c-6 -18 -28 -21 -28 -4 0 9 7 16 16 16 9
0 14 -5 12 -12z m382 -8 c0 -5 -2 -10 -4 -10 -3 0 -8 5 -11 10 -3 6 -1 10 4
10 6 0 11 -4 11 -10z"/>
<path d="M2200 1616 c0 -8 5 -18 10 -21 6 -3 10 1 10 9 0 8 -4 18 -10 21 -5 3
-10 -1 -10 -9z"/>
<path d="M2210 1539 c0 -5 5 -7 10 -4 6 3 10 8 10 11 0 2 -4 4 -10 4 -5 0 -10
-5 -10 -11z"/>
<path d="M2140 1455 c0 -8 4 -15 10 -15 5 0 7 7 4 15 -4 8 -8 15 -10 15 -2 0
-4 -7 -4 -15z"/>
<path d="M1900 1426 c0 -9 5 -16 10 -16 6 0 10 4 10 9 0 6 -4 13 -10 16 -5 3
-10 -1 -10 -9z"/>
<path d="M1777 480 c13 -14 19 -16 25 -7 4 7 1 15 -10 19 -29 11 -32 9 -15
-12z"/>
<path d="M1775 440 c-3 -5 -1 -10 4 -10 6 0 11 5 11 10 0 6 -2 10 -4 10 -3 0
-8 -4 -11 -10z"/>
<path d="M3040 200 c0 -5 5 -10 10 -10 6 0 10 5 10 10 0 6 -4 10 -10 10 -5 0
-10 -4 -10 -10z"/>
<path d="M3230 200 c0 -5 5 -10 10 -10 6 0 10 5 10 10 0 6 -4 10 -10 10 -5 0
-10 -4 -10 -10z"/>
<path d="M1856 81 c-3 -5 0 -13 7 -19 10 -8 13 -6 13 9 0 20 -11 25 -20 10z"/>
<path d="M3465 140 c3 -5 10 -10 16 -10 5 0 9 5 9 10 0 6 -7 10 -16 10 -8 0
-12 -4 -9 -10z"/>
<path d="M2228 129 c-19 -11 -24 -29 -8 -29 5 0 14 9 20 20 12 23 12 23 -12 9z"/>
<path d="M3440 1189 c0 -5 5 -7 10 -4 6 3 10 8 10 11 0 2 -4 4 -10 4 -5 0 -10
-5 -10 -11z"/>
<path d="M2650 880 c0 -5 12 -10 26 -10 14 0 23 4 19 10 -3 6 -15 10 -26 10
-10 0 -19 -4 -19 -10z"/>
<path d="M2496 861 c-4 -7 -5 -15 -2 -18 9 -9 19 4 14 18 -4 11 -6 11 -12 0z"/>
<path d="M3085 861 c-3 -5 -1 -12 5 -16 5 -3 10 1 10 9 0 18 -6 21 -15 7z"/>
<path d="M3790 860 c0 -5 5 -10 10 -10 6 0 10 5 10 10 0 6 -4 10 -10 10 -5 0
-10 -4 -10 -10z"/>
<path d="M2535 840 c3 -5 10 -10 16 -10 5 0 9 5 9 10 0 6 -7 10 -16 10 -8 0
-12 -4 -9 -10z"/>
<path d="M3240 833 c0 -12 28 -38 34 -32 2 2 -5 13 -15 23 -11 11 -19 15 -19
9z"/>
<path d="M3738 827 c-16 -13 -11 -40 8 -36 22 4 34 -2 34 -18 1 -17 1 -17 11
-1 7 13 5 24 -8 43 -21 28 -22 29 -45 12z"/>
<path d="M3311 814 c0 -11 3 -14 6 -6 3 7 2 16 -1 19 -3 4 -6 -2 -5 -13z"/>
<path d="M3665 820 c-4 -6 3 -10 14 -10 25 0 27 6 6 13 -8 4 -17 2 -20 -3z"/>
<path d="M3903 823 c-17 -6 -16 -28 1 -42 11 -10 16 -8 21 9 8 24 -3 40 -22
33z"/>
<path d="M3545 800 c-3 -5 -1 -10 4 -10 6 0 11 5 11 10 0 6 -2 10 -4 10 -3 0
-8 -4 -11 -10z"/>
<path d="M3966 781 c-3 -5 3 -11 14 -14 13 -3 20 0 20 9 0 15 -26 19 -34 5z"/>
<path d="M1108 233 c7 -3 16 -2 19 1 4 3 -2 6 -13 5 -11 0 -14 -3 -6 -6z"/>
<path d="M1313 176 c-7 -8 -17 -16 -24 -18 -7 -2 -10 -10 -8 -17 4 -11 9 -10
22 3 9 10 21 14 27 11 17 -11 32 5 19 21 -14 17 -21 17 -36 0z"/>
<path d="M1195 170 c-3 -5 -12 -7 -20 -4 -18 7 -34 -26 -25 -50 6 -18 7 -18
13 -2 5 13 11 15 25 7 16 -9 18 -6 18 25 -1 37 -2 39 -11 24z"/>
<path d="M161 163 c0 -6 -9 -13 -18 -16 -17 -4 -17 -4 0 -12 22 -9 30 -2 24
22 -3 10 -5 13 -6 6z"/>
<path d="M414 161 c28 -6 29 -7 12 -24 -10 -10 -16 -21 -12 -24 7 -8 46 40 39
49 -2 5 -19 7 -36 7 l-32 -1 29 -7z"/>
<path d="M25 140 c-4 -11 -11 -20 -16 -20 -5 0 -9 -6 -9 -12 0 -8 12 -13 30
-12 35 1 54 14 21 14 -13 0 -20 4 -15 11 3 6 16 8 28 5 15 -4 28 1 39 14 19
23 0 29 -21 8 -10 -10 -17 -10 -32 -1 -16 11 -20 9 -25 -7z"/>
<path d="M216 147 c6 -18 -21 -41 -40 -34 -8 3 -17 -1 -20 -9 -9 -23 30 -17
59 10 15 14 24 30 20 35 -9 16 -25 13 -19 -2z"/>
<path d="M347 147 c-6 -16 16 -26 46 -19 20 4 23 22 3 22 -8 0 -21 3 -29 6 -8
3 -17 -1 -20 -9z"/>
<path d="M680 153 c8 -4 23 -15 33 -26 17 -20 67 -31 67 -15 0 4 -6 8 -12 8
-7 0 -20 5 -28 10 -12 8 -12 12 -2 18 8 6 -3 9 -30 10 -24 0 -36 -2 -28 -5z"/>
<path d="M765 140 c3 -5 8 -10 11 -10 2 0 4 5 4 10 0 6 -5 10 -11 10 -5 0 -7
-4 -4 -10z"/>
<path d="M871 143 c-1 -7 -7 -13 -13 -13 -9 0 -13 -18 -13 -59 0 -33 3 -57 8
-54 4 2 7 -1 7 -6 0 -6 14 -11 31 -11 18 0 28 4 24 10 -4 6 -16 8 -27 4 -17
-5 -20 -3 -15 10 4 10 1 16 -9 16 -21 0 -7 19 22 30 13 5 24 16 24 25 0 8 8
15 18 16 10 0 12 2 4 6 -7 3 -23 -2 -36 -11 -26 -17 -42 -10 -25 10 6 7 9 19
6 26 -4 10 -6 10 -6 1z"/>
<path d="M1457 143 c-11 -10 -8 -28 8 -49 14 -18 14 -17 11 14 -3 35 -9 46
-19 35z"/>
<path d="M561 118 c2 -13 0 -29 -4 -35 -6 -9 -2 -13 12 -13 11 0 23 -4 26 -10
10 -16 21 -12 32 13 11 22 11 21 18 -8 12 -48 55 -87 55 -50 0 8 -6 15 -14 15
-8 0 -17 4 -20 9 -8 13 4 42 15 35 5 -3 7 -10 4 -15 -4 -5 9 -10 27 -10 18 -1
25 -3 16 -6 -22 -5 -22 -10 -4 -29 19 -18 30 -18 22 1 -3 9 0 15 10 15 11 0
14 5 10 16 -4 12 -2 15 9 10 8 -3 15 -1 15 3 0 5 7 11 14 14 11 4 13 1 9 -11
-6 -15 -5 -15 10 -3 9 7 14 17 11 22 -6 10 -70 2 -94 -11 -19 -11 -91 26 -97
51 -6 21 -23 25 -40 8 -8 -8 -13 -8 -17 0 -12 19 -28 12 -25 -11z m56 -33 c-2
-5 -10 -10 -17 -10 -7 0 -15 5 -17 10 -2 6 6 11 17 11 11 0 19 -5 17 -11z"/>
<path d="M1230 130 c0 -5 5 -10 10 -10 6 0 10 5 10 10 0 6 -4 10 -10 10 -5 0
-10 -4 -10 -10z"/>
<path d="M280 115 c-14 -16 -10 -18 14 -9 9 3 16 10 16 15 0 14 -16 11 -30 -6z"/>
<path d="M1318 123 c7 -3 16 -2 19 1 4 3 -2 6 -13 5 -11 0 -14 -3 -6 -6z"/>
<path d="M327 106 c-4 -10 -1 -13 8 -9 8 3 12 9 9 14 -7 12 -11 11 -17 -5z"/>
<path d="M373 105 c-18 -19 -16 -28 3 -21 10 4 13 2 8 -7 -4 -6 -3 -9 1 -4 11
10 17 47 7 47 -4 -1 -13 -7 -19 -15z"/>
<path d="M470 101 c-13 -25 -13 -41 0 -21 6 10 10 11 10 3 0 -15 36 -17 45 -3
3 6 1 10 -4 10 -6 0 -11 7 -11 15 0 22 -27 19 -40 -4z"/>
<path d="M525 110 c3 -5 10 -10 16 -10 5 0 9 5 9 10 0 6 -7 10 -16 10 -8 0
-12 -4 -9 -10z"/>
<path d="M233 92 c4 -28 13 -36 20 -18 3 8 -1 20 -9 27 -12 10 -14 8 -11 -9z"/>
<path d="M1340 96 c0 -2 7 -6 15 -10 8 -3 15 -1 15 4 0 6 -7 10 -15 10 -8 0
-15 -2 -15 -4z"/>
<path d="M104 79 c-3 -6 -15 -9 -25 -6 -35 9 -20 -12 24 -33 l42 -20 -39 6
c-41 6 -71 27 -61 44 3 5 1 10 -4 10 -6 0 -11 -9 -11 -20 0 -11 5 -20 10 -20
6 0 10 -4 10 -10 0 -6 -9 -6 -25 0 -21 8 -25 7 -25 -8 0 -15 13 -17 98 -19 53
-1 90 1 82 4 -8 3 -21 14 -28 25 -7 10 -20 18 -28 18 -8 0 -12 5 -9 10 4 6 16
8 28 4 26 -8 21 -2 -10 15 -16 8 -24 8 -29 0z"/>
<path d="M1084 79 c-5 -9 -1 -11 14 -7 14 4 26 0 32 -10 9 -15 10 -15 8 3 -4
23 -42 33 -54 14z"/>
<path d="M1294 76 c-10 -8 -16 -18 -11 -22 4 -4 7 -2 7 4 0 7 9 12 20 12 11 0
20 -5 20 -11 0 -6 7 -8 16 -5 11 4 15 2 11 -8 -4 -9 0 -12 13 -9 10 3 20 13
23 24 5 19 -7 26 -17 10 -7 -11 -46 -2 -46 10 0 13 -13 11 -36 -5z"/>
<path d="M1419 68 c5 -13 12 -23 17 -23 5 0 15 -4 23 -9 8 -5 16 -5 20 1 9 14
41 24 41 13 0 -6 -5 -10 -11 -10 -5 0 -8 -4 -5 -9 4 -5 21 5 40 22 34 31 42
53 10 27 -18 -16 -104 -22 -104 -8 0 5 -4 6 -10 3 -5 -3 -10 -1 -10 4 0 6 -4
11 -10 11 -6 0 -6 -9 -1 -22z"/>
<path d="M269 64 c-19 -9 -36 -11 -58 -4 -32 9 -52 -3 -28 -17 7 -4 16 -16 20
-25 3 -10 16 -18 29 -18 21 0 21 1 3 13 -14 11 -15 16 -5 22 9 5 20 0 31 -13
12 -16 19 -18 23 -10 5 10 7 10 12 1 3 -7 18 -13 32 -13 26 1 26 1 8 15 -11 8
-16 18 -11 22 4 5 10 2 12 -4 3 -7 14 -13 24 -13 11 0 17 -4 14 -10 -10 -16 0
-12 25 10 26 22 38 24 60 10 13 -9 13 -11 0 -20 -11 -7 -6 -10 22 -10 21 0 37
3 37 7 -5 29 2 36 17 15 13 -18 24 -22 72 -22 45 1 53 3 39 11 -10 6 -21 8
-24 5 -3 -3 -14 5 -23 17 -17 20 -18 20 -17 3 1 -10 -3 -21 -10 -23 -8 -3 -10
5 -7 24 3 21 2 25 -6 13 -9 -13 -12 -13 -21 3 -8 14 -14 16 -24 7 -8 -7 -18
-9 -24 -6 -5 3 -11 1 -13 -5 -2 -6 -14 -1 -28 11 -13 11 -30 18 -38 15 -7 -3
-16 -5 -18 -5 -2 0 -4 -4 -4 -10 0 -5 8 -6 18 -3 15 6 15 5 3 -10 -15 -18 -31
-14 -31 8 0 18 -58 9 -78 -12 -16 -16 -32 -17 -32 -2 0 5 5 7 10 4 6 -3 13 1
16 10 9 23 3 25 -27 9z m231 -39 c0 -8 -2 -15 -4 -15 -2 0 -6 7 -10 15 -3 8
-1 15 4 15 6 0 10 -7 10 -15z"/>
<path d="M1037 63 c7 -17 23 -17 23 0 0 8 -6 14 -14 14 -8 0 -12 -6 -9 -14z"/>
<path d="M1215 70 c3 -5 10 -10 16 -10 5 0 9 5 9 10 0 6 -7 10 -16 10 -8 0
-12 -4 -9 -10z"/>
<path d="M1640 45 c0 -8 5 -15 11 -15 6 0 9 -7 5 -15 -3 -10 1 -15 13 -15 14
0 17 6 13 30 -3 21 -10 30 -23 30 -11 0 -19 -7 -19 -15z"/>
<path d="M970 40 c0 -5 6 -10 14 -10 8 0 16 -6 19 -12 2 -7 8 -10 12 -6 9 8
-18 38 -34 38 -6 0 -11 -4 -11 -10z"/>
<path d="M795 30 c-3 -5 -2 -10 4 -10 5 0 13 5 16 10 3 6 2 10 -4 10 -5 0 -13
-4 -16 -10z"/>
<path d="M1570 20 c0 -5 5 -10 10 -10 6 0 10 5 10 10 0 6 -4 10 -10 10 -5 0
-10 -4 -10 -10z"/>
<path d="M1390 10 c0 -5 15 -10 33 -9 27 0 29 2 12 9 -28 12 -45 12 -45 0z"/>
<path d="M1530 16 c0 -2 7 -7 16 -10 8 -3 12 -2 9 4 -6 10 -25 14 -25 6z"/>
<path d="M1498 3 c7 -3 16 -2 19 1 4 3 -2 6 -13 5 -11 0 -14 -3 -6 -6z"/>
<path d="M2678 3 c7 -3 16 -2 19 1 4 3 -2 6 -13 5 -11 0 -14 -3 -6 -6z"/>
</g>
</svg>
